<?xml version="1.0" encoding="iso-8859-1"?>
<!-- Generator: Adobe Illustrator 22.1.0, SVG Export Plug-In . SVG Version: 6.00 Build 0)  -->
<svg xmlns="http://www.w3.org/2000/svg" xmlns:xlink="http://www.w3.org/1999/xlink" version="1.1" id="Layer_3" x="0px" y="0px" viewBox="0 0 64 64" style="enable-background:new 0 0 64 64;" xml:space="preserve" width="512" height="512">
<g>
	<path d="M63,37c0-2.242-1.237-4.197-3.063-5.227l-0.938-17.826c-0.025-0.483-0.394-0.88-0.875-0.939l-1.967-0.246   c-8.83-1.104-17.158-5.177-23.45-11.469c-0.391-0.391-1.023-0.391-1.414,0c-6.292,6.292-14.62,10.365-23.45,11.469l-1.967,0.246   c-0.48,0.06-0.849,0.456-0.875,0.939L4.063,31.773C2.237,32.803,1,34.758,1,37c0,2.146,1.136,4.027,2.835,5.088L1.01,61.858   c-0.041,0.287,0.044,0.578,0.234,0.797S1.71,63,2,63h10c0.29,0,0.565-0.126,0.755-0.345s0.275-0.51,0.234-0.797l-2.824-19.771   C11.864,41.027,13,39.146,13,37c0-1.731-0.741-3.289-1.918-4.385l0.695-0.556c4.015-3.213,6.926-7.636,8.351-12.534   c3.899,0.909,7.884,1.375,11.871,1.375s7.973-0.466,11.871-1.375c1.425,4.898,4.337,9.321,8.352,12.534l0.695,0.556   C51.741,33.711,51,35.269,51,37c0,2.146,1.136,4.027,2.835,5.088L51.01,61.858c-0.041,0.287,0.044,0.578,0.234,0.797   S51.71,63,52,63h10c0.29,0,0.565-0.126,0.755-0.345s0.275-0.51,0.234-0.797l-2.824-19.771C61.864,41.027,63,39.146,63,37z    M10.847,61H8v-4H6v4H3.153l2.591-18.135C6.149,42.952,6.569,43,7,43s0.851-0.048,1.256-0.135L10.847,61z M7,41   c-2.206,0-4-1.794-4-4s1.794-4,4-4s4,1.794,4,4S9.206,41,7,41z M53.473,30.497c-3.675-2.94-6.345-6.983-7.663-11.462   c1.184-0.325,2.361-0.682,3.523-1.092l-0.666-1.887c-1.102,0.389-2.218,0.728-3.341,1.037c-0.145-0.724-0.257-1.456-0.331-2.194   l-1.99,0.199c0.084,0.837,0.211,1.667,0.38,2.487c-7.478,1.74-15.291,1.74-22.769,0c0.168-0.82,0.296-1.65,0.38-2.487l-1.99-0.199   c-0.074,0.738-0.186,1.47-0.331,2.194c-1.123-0.309-2.239-0.648-3.341-1.037l-0.666,1.887c1.162,0.41,2.339,0.767,3.523,1.092   c-1.317,4.479-3.987,8.522-7.662,11.462l-1.211,0.969C8.603,31.166,7.821,31,7,31c-0.306,0-0.604,0.03-0.897,0.075l0.852-16.186   l1.137-0.143C17.033,13.629,25.484,9.61,32,3.397c6.516,6.213,14.967,10.231,23.909,11.349l1.137,0.143l0.852,16.186   C57.604,31.03,57.306,31,57,31c-0.821,0-1.603,0.166-2.316,0.466L53.473,30.497z M57,33c2.206,0,4,1.794,4,4s-1.794,4-4,4   s-4-1.794-4-4S54.794,33,57,33z M60.847,61H58v-4h-2v4h-2.847l2.591-18.135C56.149,42.952,56.569,43,57,43s0.851-0.048,1.256-0.135   L60.847,61z"/>
	<path d="M24.422,34.603l6.913,6.145C31.525,40.916,31.763,41,32,41s0.475-0.084,0.665-0.253l6.913-6.145   C41.117,33.233,42,31.267,42,29.208c0-3.211-2.411-5.928-5.489-6.187c-1.669-0.141-3.291,0.419-4.512,1.525   c-1.359-1.229-3.213-1.779-5.066-1.454C24.075,23.595,22,26.166,22,29.208C22,31.268,22.883,33.233,24.422,34.603z M27.278,25.063   C27.521,25.021,27.764,25,28.003,25c1.257,0,2.416,0.579,3.195,1.625c0.377,0.506,1.226,0.506,1.604,0   c0.837-1.125,2.166-1.721,3.541-1.611C38.394,25.187,40,27.028,40,29.208c0,1.488-0.639,2.91-1.751,3.9L32,38.662l-6.249-5.554   C24.638,32.118,24,30.696,24,29.207C24,27.172,25.409,25.391,27.278,25.063z"/>
	<rect x="6" y="36" width="2" height="2"/>
	<rect x="56" y="36" width="2" height="2"/>
	<path d="M48,57H16c-0.552,0-1,0.447-1,1v4c0,0.553,0.448,1,1,1h32c0.552,0,1-0.447,1-1v-4C49,57.447,48.552,57,48,57z M47,61H17v-2   h30V61z"/>
	<path d="M32,7c-2.206,0-4,1.794-4,4s1.794,4,4,4s4-1.794,4-4S34.206,7,32,7z M32,13c-1.103,0-2-0.897-2-2s0.897-2,2-2s2,0.897,2,2   S33.103,13,32,13z"/>
	<path d="M19,47c0,0.553,0.448,1,1,1s1-0.447,1-1c0-2.206,1.794-4,4-4c0.552,0,1-0.447,1-1s-0.448-1-1-1c-2.206,0-4-1.794-4-4   c0-0.553-0.448-1-1-1s-1,0.447-1,1c0,2.206-1.794,4-4,4c-0.552,0-1,0.447-1,1s0.448,1,1,1C17.206,43,19,44.794,19,47z M20,40.313   c0.444,0.668,1.019,1.242,1.687,1.687c-0.668,0.444-1.242,1.019-1.687,1.687c-0.444-0.668-1.019-1.242-1.687-1.687   C18.981,41.556,19.556,40.981,20,40.313z"/>
	<path d="M50,48c-2.206,0-4-1.794-4-4c0-0.553-0.448-1-1-1s-1,0.447-1,1c0,2.206-1.794,4-4,4c-0.552,0-1,0.447-1,1s0.448,1,1,1   c2.206,0,4,1.794,4,4c0,0.553,0.448,1,1,1s1-0.447,1-1c0-2.206,1.794-4,4-4c0.552,0,1-0.447,1-1S50.552,48,50,48z M45,50.687   c-0.444-0.668-1.019-1.242-1.687-1.687c0.668-0.444,1.242-1.019,1.687-1.687c0.444,0.668,1.019,1.242,1.687,1.687   C46.019,49.444,45.444,50.019,45,50.687z"/>
</g>
</svg>
