<?xml version="1.0"?>
<svg xmlns="http://www.w3.org/2000/svg" viewBox="0 0 64 64" width="512" height="512"><g id="ballons"><path d="M47.262,6.965c.192-.051,4.725-1.235,8.069,1.778a8.6,8.6,0,0,1,2.675,5.364A1,1,0,0,0,59,15a.977.977,0,0,0,.108-.006,1,1,0,0,0,.887-1.1,10.62,10.62,0,0,0-3.325-6.636c-4.074-3.672-9.343-2.38-9.931-2.222a1,1,0,1,0,.524,1.93Z"/><path d="M55.142,4.99A4.552,4.552,0,0,1,58.4,5.8a4.42,4.42,0,0,1,1.628,2.444,1,1,0,0,0,1.938-.494A6.437,6.437,0,0,0,59.6,4.2,6.5,6.5,0,0,0,54.858,3.01a1,1,0,0,0,.284,1.98Z"/><path d="M24,7a1,1,0,0,0-1-1C13.626,6,6,14.972,6,26a1,1,0,0,0,2,0C8,16.075,14.729,8,23,8A1,1,0,0,0,24,7Z"/><path d="M62,31C62,17.767,52.58,7,41,7a18.462,18.462,0,0,0-4.58.582A19.453,19.453,0,0,0,23,2C11.42,2,2,12.767,2,26c0,8.84,8.928,17.274,15,21.992V54a1,1,0,0,0,1.515.857l2.9-1.74a1.01,1.01,0,0,0,.126.4L22.434,55l-.892,1.484a1,1,0,0,0,0,1.029L22.434,59l-.892,1.488a1,1,0,0,0,1.716,1.028l1.2-2a1,1,0,0,0,0-1.028L23.566,57l.892-1.485a1,1,0,0,0,0-1.029L23.566,53l.218-.362,3.7,2.221A1,1,0,0,0,29,54V48c0-.008,0-.015,0-.023.044-.034.087-.066.131-.1A66.248,66.248,0,0,0,35,52.992V59a1,1,0,0,0,1.515.857l2.9-1.74a1.01,1.01,0,0,0,.126.4L40.434,60l-.892,1.484a1,1,0,1,0,1.715,1.029l1.2-2a1,1,0,0,0,0-1.029L41.566,58l.218-.362,3.7,2.221A1,1,0,0,0,47,59V52.992C53.072,48.276,62,39.842,62,31ZM4,26C4,13.869,12.523,4,23,4A17.308,17.308,0,0,1,34.233,8.286C25.965,11.512,20,20.472,20,31c0,5.585,3.567,11.007,7.723,15.434C25.6,48.077,23.838,49.266,23,49.813,19.887,47.782,4,36.881,4,26ZM19,52.234V49.766L21.056,51Zm8,0L24.944,51,27,49.766Zm10,5V54.766L39.056,56Zm8,0L42.944,56,45,54.766Zm-4-2.421C37.887,52.781,22,41.875,22,31,22,18.869,30.523,9,41,9s19,9.869,19,22C60,41.875,44.113,52.781,41,54.813Z"/><path d="M56.221,23.432a8.027,8.027,0,0,0-6.837-4.781c-.213-.014-.426-.022-.642-.022A9.361,9.361,0,0,0,41,22.705a9.443,9.443,0,0,0-8.385-4.054,8.027,8.027,0,0,0-6.836,4.781,8.532,8.532,0,0,0,.977,8.726L40.238,48.019a1,1,0,0,0,1.524,0s13.506-15.89,13.517-15.9A8.514,8.514,0,0,0,56.221,23.432ZM53.7,30.885,41,45.827,28.315,30.906a6.518,6.518,0,0,1-.716-6.645,6.058,6.058,0,0,1,5.15-3.615c.168-.011.338-.017.509-.017a7.369,7.369,0,0,1,6.819,4.546,1,1,0,0,0,1.846,0,7.369,7.369,0,0,1,6.819-4.546c.171,0,.341.006.508.017A6.058,6.058,0,0,1,54.4,24.261,6.517,6.517,0,0,1,53.7,30.885Z"/><path d="M49.208,21.226c-.153-.011-.309-.017-.466-.017a1,1,0,0,0,0,2c.112,0,.224,0,.333.012a3.449,3.449,0,0,1,2.977,2.111,3.891,3.891,0,0,1-.393,3.974,1,1,0,0,0,1.61,1.187,5.868,5.868,0,0,0,.6-5.991A5.462,5.462,0,0,0,49.208,21.226Z"/></g></svg>
