<?xml version="1.0" encoding="iso-8859-1"?>
<!-- Generator: Adobe Illustrator 19.0.0, SVG Export Plug-In . SVG Version: 6.00 Build 0)  -->
<svg version="1.1" id="Capa_1" xmlns="http://www.w3.org/2000/svg" xmlns:xlink="http://www.w3.org/1999/xlink" x="0px" y="0px"
	 viewBox="0 0 512 512" style="enable-background:new 0 0 512 512;" xml:space="preserve">
<g>
	<g>
		<path d="M511.868,482.31c-1.231-9.984-10.375-16.635-17.683-22.359c-9.232-7.232-17.773-15.379-26.036-23.688
			c-9.964-10.018-19.689-20.151-30.03-29.799c-4.014-3.744-8.103-7.18-12.472-10.499c-3.743-2.844-7.946-5.776-10.605-9.751
			c6.243-9.828,9.644-21.064,6.527-32.673c-2.913-10.853-9.728-20.665-16.226-29.658c-6.813-9.43-14.285-18.366-21.976-27.087
			c-15.674-17.775-31.331-35.675-47.532-52.969c-18.651-19.91-38.284-38.871-58.288-57.412c-10.12-9.381-20.255-18.74-30.132-28.376
			c-6.02-5.87-11.56-14.502-18.98-18.938c11.985-47.728-10.748-101.584-54.432-125.208C127.948-11.015,58.201,0.972,27.283,44.66
			c-1.292,1.521-2.539,3.065-3.731,4.636C8.747,68.807,0.919,93.313,0.074,117.679c-0.916,26.438,6.67,53.753,21.412,75.758
			c17.311,25.84,44.029,39.162,74.797,41.039c14.202,0.867,28.498-1.059,42.213-5.252c9.256,16.123,24.357,26.887,38.124,39.214
			c18.192,16.29,35.65,33.397,53.928,49.619c19.021,16.881,37.803,34.026,56.861,50.866c9.714,8.581,19.467,17.119,29.261,25.608
			c9.17,7.949,18.122,17.04,28.26,23.741c13.417,8.871,27.589,4.539,39.947-3.221c8.137,16.129,24.951,27.229,38.247,38.74
			c9.301,8.053,18.112,16.686,26.884,25.307c8.957,8.803,17.302,18.69,26.83,26.861c6.931,5.942,14.524,6.869,21.894,1.059
			C505.933,501.343,513.063,491.997,511.868,482.31z M209.868,70.112c4.877,10.441,8.03,21.693,9.158,33.172
			c-1.107,3.572-2.133,7.177-3.511,10.705c-1.26,3.225-2.712,6.375-4.294,9.462c-2.415-3.397-4.918-6.735-7.358-10.089
			c-2.588-3.557-5.253-7.053-8.01-10.474c0.777-1.521,1.559-3.042,2.299-4.581c3.703-7.689,7.128-15.618,10.078-23.63
			C208.768,73.22,209.33,71.689,209.868,70.112z M217.85,130.128c-0.164,0.855-0.353,1.705-0.54,2.555
			c-0.162-0.272-0.335-0.539-0.5-0.811C217.157,131.294,217.506,130.718,217.85,130.128z M155.071,78.241
			c-6.157,12.029-13.406,23.487-21.576,34.247c-2.641-2.399-5.298-4.78-7.986-7.125c-4.973-4.339-10.001-8.66-15.1-12.907
			c7.956-9.922,15.19-20.441,21.28-31.575c0.181-0.33,0.354-0.665,0.533-0.995c3.183,1.904,6.322,3.883,9.396,5.959
			c4.934,3.33,9.709,6.895,14.335,10.646C155.66,77.075,155.369,77.66,155.071,78.241z M163.743,83.144
			c5.662,5.069,11.067,10.426,16.159,16.057c1.367,1.513,2.727,3.053,4.077,4.613c-6.831,12.358-14.77,24.045-23.768,34.899
			c-6.299-6.714-12.809-13.228-19.501-19.55C149.471,107.868,157.219,95.79,163.743,83.144z M122.458,57.859
			c-5.638,10.072-12.172,19.601-19.352,28.623C96.377,81.069,89.517,75.829,82.47,70.91c-1.447-1.011-2.914-1.981-4.39-2.935
			c5.246-6.182,10.256-12.565,14.901-19.146c1.275-1.806,2.525-3.646,3.735-5.515c9.385,3.191,18.47,7.199,27.206,11.87
			C123.441,56.081,122.955,56.973,122.458,57.859z M97.092,93.737c-2.021,2.349-4.068,4.674-6.17,6.949
			c-8.14,8.813-16.869,17.271-26.063,25.254c-5.566-7.369-10.818-14.972-16.147-22.66c-0.675-0.975-1.353-1.948-2.03-2.922
			c5.642-5.078,11.099-10.367,16.35-15.799c3.036-3.141,6.025-6.354,8.963-9.621c0.426,0.279,0.854,0.555,1.275,0.842
			C81.484,81.347,89.382,87.426,97.092,93.737z M57.448,132.182c-7.673,6.28-15.636,12.216-23.817,17.753
			c-2.033-3.837-4-7.707-5.898-11.604c-2.784-5.717-5.358-11.539-8.029-17.311c4.862-2.398,9.449-6.086,12.776-8.693
			c2.532-1.983,5.026-4.023,7.491-6.105c0.73,1.134,1.459,2.269,2.178,3.406C47.037,117.376,52.072,124.908,57.448,132.182z
			 M53.854,145.814c3.004-2.188,5.96-4.439,8.891-6.725c3.954,4.998,8.098,9.868,12.529,14.576c2.478,2.632,5.02,5.209,7.6,7.752
			c-2.015,1.402-4.055,2.77-6.12,4.099c-7.995,5.146-16.328,9.843-24.938,13.88c-1.078-1.466-2.135-2.943-3.163-4.436
			c-3.964-5.746-7.626-11.695-11.064-17.775C43.108,153.54,48.521,149.696,53.854,145.814z M80.892,145.06
			c-3.718-3.906-7.19-7.953-10.53-12.086c9.855-8.178,19.216-16.945,27.902-26.375c2.061-2.238,4.075-4.523,6.067-6.832
			c3.992,3.382,7.944,6.801,11.865,10.23c3.799,3.323,7.547,6.705,11.25,10.135c-1.892,2.285-3.813,4.545-5.792,6.756
			c-9.283,10.369-19.484,19.922-30.502,28.422C87.645,151.974,84.219,148.556,80.892,145.06z M108.742,153.057
			c9.217-8.034,17.855-16.829,25.787-26.237c6.549,6.303,12.924,12.783,19.096,19.456c-0.89,0.979-1.764,1.97-2.671,2.934
			c-9.903,10.516-20.81,19.922-32.351,28.524c-7.121-4.889-13.92-10.26-20.413-15.985
			C101.792,158.939,105.317,156.042,108.742,153.057z M135.246,177.19c8.893-7.207,17.271-15.089,25.057-23.526
			c3.874,4.38,7.663,8.836,11.312,13.401c1.147,1.438,2.27,2.893,3.369,4.365c-0.63,0.654-1.254,1.314-1.888,1.965
			c-7.529,7.727-15.411,15.072-23.732,21.891c-1.983-0.922-3.953-1.875-5.908-2.857c-5.496-2.764-10.865-5.779-16.105-9.003
			C130.018,181.377,132.649,179.294,135.246,177.19z M179.096,179.395c0.271-0.276,0.536-0.56,0.807-0.837
			c1.911,3.081,3.291,6.502,5.113,9.614c-5.676,5.438-11.874,10.362-18.449,14.688c-2.575-1.664-5.549-2.729-8.461-3.823
			C165.431,192.836,172.414,186.22,179.096,179.395z M181.996,163.956c-4.775-6.125-9.816-12.053-14.997-17.838
			c8.966-10.593,16.978-21.988,23.868-34.013c5.344,6.717,10.389,13.773,14.848,21.061c-0.587,0.948-1.182,1.89-1.785,2.825
			C197.488,145.96,189.983,155.183,181.996,163.956z M210.573,141.652c0.624,1.172,1.236,2.347,1.825,3.526
			c0.237,0.475,0.52,0.854,0.819,1.191c-4.667,12.293-11.721,23.688-20.481,33.729c-1.445-3.25-3.42-6.33-5.518-9.256
			C195.672,161.667,203.633,152.007,210.573,141.652z M176.409,53.212c2.049-6.559,3.115-13.475,3.933-20.371
			c8.718,6.764,16.229,15.035,22.281,24.281c-2.699,13.111-7.766,25.529-13.795,37.516c-0.686-0.77-1.355-1.551-2.055-2.308
			c-5.87-6.362-12.133-12.362-18.73-17.968C171.23,67.499,174.159,60.418,176.409,53.212z M147.678,16.687
			c2.15,0.567,4.292,1.185,6.411,1.908c6.313,2.156,12.276,5.024,17.861,8.455c-2.435,7.953-2.691,16.498-5.367,24.543
			c-1.847,5.551-4.069,10.998-6.509,16.342c-4.505-3.471-9.133-6.781-13.902-9.879c-3.249-2.111-6.57-4.113-9.938-6.037
			c2.536-5.298,4.81-10.726,6.737-16.261C144.879,30.274,147.057,23.264,147.678,16.687z M104.196,29.429
			c1.627-3.947,2.703-8.047,3.864-12.145c0.299-1.056,0.637-2.094,0.961-3.129c9.73-1.098,19.563-0.999,29.219,0.541
			c-0.413,2.002-0.703,4.051-1.124,6.063c-0.885,4.223-2.001,8.367-3.408,12.445c-1.679,4.865-3.669,9.619-5.878,14.27
			c-8.666-4.42-17.657-8.198-26.878-11.27C102.143,33.995,103.244,31.741,104.196,29.429z M83.222,19.888
			c5.076-1.689,10.26-3.065,15.503-4.117c-0.428,1.791-0.827,3.559-1.324,5.18c-1.346,4.381-3.259,8.498-5.484,12.459
			c-9.021-2.529-18.456-4.424-27.873-5.045C70.078,24.985,76.471,22.136,83.222,19.888z M54.846,34.118
			c11.018,1.764,21.914,3.512,32.69,6.409c-0.03,0.046-0.059,0.091-0.089,0.136c-5.191,7.838-11.057,15.338-17.226,22.544
			c-3.862-2.2-7.806-4.265-11.822-6.237c-6.374-3.131-12.742-6.693-19.203-9.774C44.04,42.371,49.265,37.999,54.846,34.118z
			 M34.417,52.248c4.929,4.377,11.29,7.632,16.855,10.667c4.339,2.365,8.65,4.699,12.888,7.172
			c-1.727,1.916-3.461,3.819-5.208,5.694c-5.56,5.97-11.415,11.606-17.386,17.128c-2.509-3.734-4.93-7.525-7.136-11.451
			c-3.223-5.736-4.577-13.101-8.779-18.285C28.4,59.349,31.321,55.701,34.417,52.248z M22.23,69.083
			c1.52,5.545,3.015,11.104,5.453,16.318c2.161,4.622,4.766,9.022,7.492,13.351c-1.297,1.175-2.597,2.349-3.896,3.523
			c-4.848,4.375-9.813,8.071-15.042,11.483c-1.517-3.074-3.11-6.111-4.81-9.093C13.092,92.316,16.676,80.238,22.23,69.083z
			 M10.938,133.188c-0.328-3.243-0.513-6.503-0.58-9.767c0.759,0.032,1.527-0.023,2.299-0.121c2.71,6.932,5.771,13.738,8.882,20.477
			c1.662,3.598,3.38,7.173,5.161,10.716c-3.198,2.042-6.425,4.028-9.681,5.938C13.914,151.521,11.857,142.288,10.938,133.188z
			 M31.418,188.581c-4.66-6.529-8.57-13.691-11.721-21.178c3.802-1.426,7.43-3.604,10.778-5.68
			c3.989,7.4,8.317,14.614,13.148,21.506C39.6,185.097,35.517,186.94,31.418,188.581z M54.085,210.377
			c-4.722-2.913-9.128-6.348-13.091-10.353c-2-2.021-3.898-4.158-5.712-6.377c4.317-0.877,8.58-1.912,12.917-3.484
			c0.145-0.053,0.287-0.115,0.433-0.168c4.992,6.443,10.438,12.506,16.479,17.957C61.518,209.195,57.837,210.128,54.085,210.377z
			 M57.32,186.446c4.202-1.867,8.338-3.893,12.381-6.032c6.936-3.673,13.632-7.856,20.075-12.403
			c6.285,5.771,12.864,11.221,19.726,16.277c-2.041,1.41-4.096,2.8-6.168,4.166c-8.634,5.693-17.528,10.572-26.949,14.818
			c-0.473,0.213-0.954,0.429-1.433,0.644C68.46,198.782,62.609,192.845,57.32,186.446z M66.376,216.523
			c2.229-0.519,4.466-1.229,6.669-2.033c0.047,0.035,0.091,0.073,0.138,0.108c3.378,2.52,6.912,4.803,10.587,6.836
			C77.808,220.359,71.96,218.741,66.376,216.523z M93.631,215.374c-3.466-1.549-6.83-3.357-10.066-5.367
			c1.745-0.818,3.395-1.608,4.913-2.308c10.373-4.779,20.21-10.795,29.595-17.429c6.952,4.604,14.18,8.785,21.635,12.519
			c-2.104,1.553-4.228,3.082-6.391,4.563c-6.881,4.712-14.328,10.313-22.137,14.686C106.703,218.464,98.59,217.59,93.631,215.374z
			 M130.348,219.266c2.458-1.6,4.851-3.21,7.168-4.729c3.614-2.369,7.141-4.877,10.596-7.484c2.086,1.021,4.22,1.998,6.373,2.846
			C146.737,213.869,138.633,217.044,130.348,219.266z M377.866,404.88c-8.539,5.176-16.743,9.158-26.006,3.364
			c-9.604-6.007-18.076-14.869-26.654-22.249c-8.936-7.686-17.837-15.411-26.706-23.174c-17.693-15.487-35.137-31.254-52.748-46.834
			c-19.32-17.09-38.628-34.123-57.546-51.656c-7.716-7.152-16.131-13.474-24.153-20.266c-6.291-5.326-12.978-10.889-18.473-17.227
			c35.201-12.98,65.568-40.988,78.938-75.516c4.107,3.471,7.433,8.445,11.012,12.079c8.071,8.194,16.607,15.976,25.047,23.786
			c16.529,15.3,33.016,30.63,48.9,46.604c15.721,15.809,30.441,32.42,45.313,49.014c14.48,16.157,29.704,31.84,42.204,49.638
			c5.786,8.237,12.857,17.818,13.87,28.151c1.007,10.282-5.807,19.656-12.258,27.004
			C392.609,394.425,385.632,400.175,377.866,404.88z M500.426,490.362c-2.135,3.133-6.582,8.42-10.426,9.346
			c-3.702,0.894-6.866-3.354-9.215-5.721c-15.561-15.685-30.875-31.9-47.67-46.289c-7.858-6.733-16.209-12.87-23.997-19.689
			c-6.248-5.47-11.998-11.42-17.544-17.578c1.994-1.497,3.922-3.041,5.768-4.582c3.613-3.02,7.218-6.445,10.531-10.188
			c3.825,4.332,8.814,7.712,13.358,11.169c7.833,5.959,14.876,13.167,21.929,20.018c14.855,14.431,28.621,29.45,45.35,41.843
			C495.324,473.739,506.871,480.903,500.426,490.362z"/>
	</g>
</g>
<g>
	<g>
		<path d="M299.009,255.602c-8.437-10.026-18.955-18.726-29.646-26.234c-8.399-5.898-16.389-8.413-25.446-2.117
			c-8.592,5.972-18.248,14.569-17.479,25.954c-1.422,7.409,2.672,13.765,8.021,19.079c3.677,4.877,8.248,9.043,12.965,11.521
			c5.405,4.565,10.926,8.999,16.537,13.273c7.845,5.976,17.037,15.173,27.61,10.255c9.283-4.319,17.061-14.194,18.079-24.471
			C310.664,272.624,305.391,263.186,299.009,255.602z M288.531,298.961c-7.289,4.06-17.735-6.664-23.205-10.841
			c-5.408-4.129-10.557-8.549-15.714-12.969c-3.764-5.407-8.645-10.129-11.358-16.278c-3.742-8.477,0.083-13.878,6.516-19.423
			c2.668-2.299,6.464-6.172,10.336-6.133c3.313,0.035,6.59,2.95,9.169,4.756c8.341,5.844,16.048,12.244,23.394,19.298
			c5.682,5.457,11.353,11.93,12.7,19.968C301.825,286.028,296.008,294.798,288.531,298.961z"/>
	</g>
</g>
<g>
</g>
<g>
</g>
<g>
</g>
<g>
</g>
<g>
</g>
<g>
</g>
<g>
</g>
<g>
</g>
<g>
</g>
<g>
</g>
<g>
</g>
<g>
</g>
<g>
</g>
<g>
</g>
<g>
</g>
</svg>
