<?xml version="1.0" encoding="iso-8859-1"?>
<!-- Generator: Adobe Illustrator 19.0.0, SVG Export Plug-In . SVG Version: 6.00 Build 0)  -->
<svg version="1.1" id="Capa_1" xmlns="http://www.w3.org/2000/svg" xmlns:xlink="http://www.w3.org/1999/xlink" x="0px" y="0px"
	 viewBox="0 0 511.999 511.999" style="enable-background:new 0 0 511.999 511.999;" xml:space="preserve">
<g>
	<g>
		<path d="M250.209,104.575c-3.486-0.15-6.832,1.584-8.59,4.624c-2.008,3.471-1.355,8.188,0.764,11.466
			c2.437,6.283,11.078,8.865,15.873,2.652C263.5,116.522,259.189,104.964,250.209,104.575z"/>
	</g>
</g>
<g>
	<g>
		<path d="M295.318,147.886c-0.751-1.677-3.456-1.538-4.251,0c-0.965,1.867-1.145,3.734-3.133,4.749
			c-1.814,0.926-4.327,0.772-6.299,0.582c-2.158-0.208-4.641-0.609-6.023-2.464c-1.182-1.584-1.458-3.751-2.524-5.425
			c-0.708-1.111-2.699-1.395-3.333,0c-3.718,8.188,4.757,13.746,11.88,14.411C288.244,160.355,299.152,156.447,295.318,147.886z"/>
	</g>
</g>
<g>
	<g>
		<path d="M323.333,111.204c-0.725-3.738-3.78-6.792-7.489-7.625c-3.914-0.878-7.798,1.125-9.65,4.62
			c-1.837,3.464-1.518,7.862,1.135,10.819c0.96,1.072,2.218,1.89,3.599,2.418c2.612,1.42,5.86,1.557,8.449-0.113
			C322.68,119.193,324.062,114.96,323.333,111.204z"/>
	</g>
</g>
<g>
	<g>
		<path d="M305.102,172.57c-0.299-2.297-2.653-3.45-4.51-1.868c-5.103,4.348-10.071,5.88-16.828,6.118
			c-3.506,0.124-7.064-0.165-10.311-1.603c-3.26-1.444-5.849-3.982-9.189-5.223c-1.67-0.62-3.15,1.224-2.76,2.759
			c2.464,9.692,15.492,12.272,23.969,11.877C291.873,184.333,306.297,181.775,305.102,172.57z"/>
	</g>
</g>
<g>
	<g>
		<path d="M423.823,483.964c-4.119-38.45-4.972-77.181-5.198-115.821c-0.111-18.792-0.001-37.555-1.126-56.323
			c-0.558-9.298-1.282-18.594-2.237-27.86c-0.855-8.308-1.09-17.416-3.412-25.471c-4.663-16.181-21.285-25.239-34.602-33.549
			c-8.396-5.24-17.182-9.878-25.421-15.36c-5.336-3.55-10.591-7.016-16.368-9.608c1.752-1.297,3.439-2.67,5.036-4.144
			c6.538-6.032,12.244-13.69,16.167-21.67c1.842-3.75,3.539-7.739,4.375-11.844c0.74-3.635,0.729-7.537,1.611-11.172
			c10.416,0.738,20.592-8.823,22.368-19.101c1.978-11.433-6.063-20.649-16.323-22.143c5.971-9.487,6.355-23.479,7.526-33.938
			c1.567-14.001-0.826-28.447-7.375-40.997c-9.382-17.979-28.22-27.766-47.409-31.791c-20.693-4.341-42.183-3.895-62.986-0.663
			c-11.277,1.751-21.024,5.145-30.088,12.289c-9.131,7.197-15.762,16.864-20.432,27.437c-6.773,15.333-9.113,31.063-8.248,47.758
			c0.311,5.985-0.093,17.11,3.299,24.179c-1.059,0.186-2.137,0.512-3.201,0.979c-6.027,2.646-10.785,8.698-13.539,14.53
			c-2.924,6.192-2.93,14.121,0.732,20.048c2.123,3.436,5.66,5.935,9.569,6.866c3.79,0.902,7.575,0.064,11.377-0.312
			c1.866,20.923,14.163,36.521,30.999,46.334c-3.86,1.61-7.535,3.933-11.014,5.861c-7.095,3.931-14.642,7.408-21.167,12.261
			c-0.67-1.889-1.417-3.737-2.266-5.521c-2.671-5.616-6.53-11.583-12.292-14.392c-5.35-2.606-12.375-1.957-18.092-1.325
			c-5.908,0.654-10.674,1.987-14.061,7.228c-0.896,1.388-1.628,2.924-2.281,4.491c-3.125,5.72-4.879,12.344-6.825,18.542
			c-4.069,12.955-5.091,28.65,2.404,40.721c0.978,1.575,2.129,2.988,3.376,4.312c-1.627,2.177-2.738,4.938-3.729,7.216
			c-2.153,4.947-3.602,10.184-4.608,15.479c-0.955,5.023-1.651,10.119-2.028,15.219c-0.306,4.144-0.981,8.941,0.619,12.871
			c-0.987-0.034-1.984-0.075-2.99-0.113c-12.438-0.47-24.975-0.938-37.296,1.221c-7.498,1.313-20.357,5.181-19.411,15.001
			c1.281,13.285,20.171,12.251,29.667,12.733c4.52,0.229,9.049,0.411,13.583,0.565c0.153,5.985,3.583,11.162,8.404,14.242
			c-6.156,6.056-2.716,21.19-0.126,27.446c3.203,7.736,8.319,13.175,14.944,16.717c-0.188,0.529-0.318,1.106-0.322,1.767
			c-0.101,14.692-2.038,29.23-4.056,43.758c-1.4,10.073-3.677,20.212-4.661,30.319c-0.913,9.375,2.272,16.763,12.123,18.55
			c9.935,1.803,20.927,1.502,30.983,1.783c14.086,0.393,28.124-0.555,42.202-0.75c6.373-0.088,12.751-0.138,19.116-0.516
			c10.016-0.595,19.693-3.093,29.719-3.464c8.509-0.315,17.063,0.55,25.332,2.583c3.553,0.873,6.392,2.542,10.068,2.822
			c4.182,0.318,8.379,0.15,12.566,0.086c9.166-0.142,18.247-0.295,27.409,0.192c17.501,0.932,34.942,2.29,52.464,0.845
			c6.22-0.513,12.793-2.044,16.076-7.908C426.068,497.53,424.506,490.332,423.823,483.964z M337.539,222.675
			c1.844,3.945,3.811,7.831,5.809,11.699c3.994,7.731,8.14,15.392,11.748,23.315c2.181,4.788,4.375,9.569,6.496,14.383
			c1.811,4.106,6.132,10.357,5.609,14.934c-0.336,2.944-3.455,5.006-5.568,6.731c-3.186,2.602-6.51,5.042-9.33,8.058
			c-4.675,5-6.852,10.813-4.323,17.441c2.486,6.516,11.508,13.104,9.863,20.532c-2.106,9.506-8.281,18.989-13.195,27.265
			c-5.263,8.861-11.311,17.261-16.384,26.228c-1.489,2.631-2.925,5.315-4.308,8.034c0.629-3.92,1.256-7.839,1.852-11.764
			c6.181-40.674,11.195-81.731,11.164-122.924c-0.008-11.375,0.25-22.837-0.822-34.172c-0.352-3.722-0.672-7.477-1.316-11.162
			c-0.152-0.872-1.039-3.043-0.805-3.89C334.844,214.429,337.158,221.861,337.539,222.675z M270.679,261.525
			c-5.124,1.961-9.896,6.424-14.85,8.425c-0.524,0.212-1.723,0.528-2.388,0.769c-0.02-0.688-0.654-2.198-0.765-2.874
			c-0.634-3.885-0.458-7.962-0.347-11.881c0.07-2.521,0.219-5.018,0.068-7.536c-0.105-1.796-0.279-3.588-0.357-5.387
			c-0.044-0.992,0.26-2.702,0.211-4.009c0.629,0.147,1.312,0.263,1.666,0.383c2.152,0.729,4.275,1.528,6.453,2.178
			c3.459,1.033,7.688,2.841,11.517,2.719C268.65,249.052,267.941,256.005,270.679,261.525z M259.6,217.531
			c-1.632-2.537-3.168-5.293-4.959-7.824c15.99,5.39,33.98,6.571,50.473,3.264c-0.172,0.787-0.339,1.583-0.547,2.374
			c-1.068,4.053-2.478,7.817-5.441,10.874c-6.33,6.529-16.139,8.777-24.584,5.446C267.766,228.991,263.414,223.464,259.6,217.531z
			 M314.099,249.733c0.052,4.122-0.247,7.892-1.157,11.922c-0.111,0.492-0.183,1.071-0.278,1.634
			c-0.269-0.068-0.985,0.11-2.272-0.031c-3.377-0.371-6.711-1.402-9.896-2.543c-1.308-0.468-2.626-1.145-3.962-1.652
			c1.316-3.703,1.273-7.964-0.09-11.821c-0.594-1.676-1.436-3.28-2.476-4.734c4.67-1.412,8.791-3.879,13.7-5.209
			c1.589-0.43,3.348-0.87,5.016-0.768c0.113,0.007,0.201,0.002,0.279-0.007c0.009,0.158,0.048,0.37,0.144,0.666
			C314.365,241.089,314.049,245.704,314.099,249.733z M276.033,251.559c0.568-4.434,5.411-8.814,9.978-5.289
			c1.789,1.38,2.796,4.039,3.079,6.2c0.641,4.901-3.564,9.904-8.846,8.364C276.555,259.758,275.607,254.875,276.033,251.559z
			 M289.568,267.006c0.529-0.26,1.024-0.554,1.5-0.866c2.316,1.975,5.875,2.862,8.641,3.777c4.542,1.503,9.877,2.959,14.714,2.359
			c8.784-1.089,8.275-14.074,8.038-20.76c-0.232-6.562,0.863-21.458-8.328-22.512c-2.422-0.277-4.729-0.016-6.941,0.604
			c1.836-2.483,3.236-5.266,4.337-8.202c1.16-3.091,2.827-7.181,2.772-10.795c3.58-1.138,7.045-2.516,10.36-4.123
			c-0.81,5.58,1.528,12.066,2.117,17.384c1.149,10.371,1.278,20.626,1.142,31.048c-0.14,10.725-0.354,21.437-0.785,32.139
			c-2.971,0.634-5.891,2.017-8.977,2.199c-4.33,0.256-8.688-0.651-12.635-2.43c-8.244-3.715-14.26-10.863-16.535-19.575
			C289.181,267.168,289.379,267.099,289.568,267.006z M216.117,151.926c-0.066-2.362-1.884-4.116-4.225-4.224
			c-5.627-0.261-13.645,3.387-17.996-1.465c-3.219-3.59-2.716-9.721-0.803-13.791c2.861-6.085,8.355-12.673,15.35-11.947
			c4.251,2.076,9.541,1.016,13.092-2.728c4.429-4.668,5.636-11.897,6.367-18.027c1.107-9.277-0.632-18.806,0.988-27.987
			c1.862-10.556,11.332-20.253,22.205-21.428c11.742-1.27,19.402,9.124,28.34,14.718c7.529,4.713,16.031,4.988,24.457,2.669
			c14.113-3.883,34.783-20.963,45.002-3.859c0.905,2.291,1.785,4.591,2.273,7.063c1.021,5.157,1.092,10.594,0.139,15.763
			c-1.783,9.663-7.591,19.539-2.883,29.368c3.336,6.968,8.854,6.208,13.271,2.429c0.233,0.017,0.476,0.02,0.731-0.009
			c7.476-0.832,15.499,2.992,14.172,11.872c-0.815,5.458-8.403,14.821-14.627,11.645c-2.09-1.066-5.057-0.658-6.222,1.632
			c-1.903,3.735-2.464,7.525-2.975,11.643c-0.632,5.086-1.802,9.612-4.05,14.254c-3.797,7.837-9.318,15.151-15.859,20.908
			c-12.47,10.975-29.345,15.466-45.68,15.461C255.561,205.876,217.141,187.977,216.117,151.926z M246.058,206.311
			c0.273,0.125,0.544,0.255,0.821,0.378c1.248,7.135,5.025,14.513,9.06,20.285c1.841,2.634,3.937,5.003,6.272,7.041
			c-1.68-0.68-3.368-1.34-5.07-1.997c-3.789-1.462-9.279-3.799-12.065,0.62c-2.364,3.75-1.163,9.757-0.832,13.864
			c0.318,3.946-0.009,7.794-0.135,11.745c-0.224,6.984-0.878,21.96,9.697,21.077c4.749-0.396,9.524-3.318,13.557-5.635
			c2.943-1.69,6.833-3.47,8.956-6.349c1.271,0.632,2.648,1.014,4.063,1.208c-5.139,6.249-10.139,12.833-16.633,17.668
			c-3.066,2.283-8.31,5.988-12.281,5.982c-4.824-0.007-5.694-6.092-7.977-9.558c-0.682-4.019-1.308-8.047-1.8-12.104
			c-1.267-10.438-2.032-20.927-2.626-31.423c-0.502-8.841-2.059-17.677-2.496-26.501
			C239.709,210.478,242.859,208.368,246.058,206.311z M228.318,232.703c0.538-2.348,1.238-4.678,1.952-7.008
			c0.298,2.902,0.688,5.704,0.801,8.1c0.532,11.263,1.116,22.506,2.106,33.74c0.869,9.892,2.3,19.666,3.863,29.467
			c0.882,5.53,1.73,11.068,2.178,16.653c0.287,3.56-0.092,7.383,0.238,10.998c-2.547-0.015-5.099,0.033-7.644,0.121
			c-2.923,0.031-5.832,0.149-8.714,0.367c-1.881,0.082-3.738,0.145-5.584,0.195c0.078-0.168,0.163-0.337,0.269-0.507
			c0.968-1.564,3.224-2.775,4.681-3.85c3.089-2.28,6.736-4.561,8.426-8.16c4.504-9.593-7.145-14.864-13.271-19.263
			c-5.788-4.156-2.549-10.304-0.801-15.897c2.371-7.588,4.021-15.416,5.916-23.132C224.525,247.23,226.646,240.028,228.318,232.703z
			 M210.482,255.381c0.463-4.688,0.556-9.415,0.27-14.116c-0.234-3.865-2.729-9.573,0.492-12.621
			c3.621-3.427,9.617-5.844,13.906-8.464c-1.451,3.379-2.744,6.8-3.745,10.616c-2.075,7.917-4.575,15.708-6.687,23.616
			c-2.028,7.589-3.977,15.187-6.779,22.537c-2.271,5.95-4.428,12.144-1.121,18.189c2.395,4.375,6.844,6.6,10.855,9.236
			c0.98,0.644,4.795,2.679,4.941,4.124c0.118,1.167-2.135,2.504-2.967,3.143c-3.715,2.848-11.787,8.792-11.938,14.347
			c-4.449,0.236-9.004,0.051-11.652-2.042c-5.085-4.019-5.571-14.347-5.742-20.188c-0.203-6.979-1.112-14.938,3.033-20.974
			c3.111-4.53,7.603-7.995,10.99-12.324C207.873,265.944,209.918,261.101,210.482,255.381z M166.127,208.441
			c2.833-2.159,7-2.019,10.406-2.154c4.202-0.167,9.521-0.656,13.266,1.585c1.048,0.627,1.998,1.415,2.875,2.301
			c-1.807,1.002-3.351,2.462-5.406,3.229c-2.541,0.949-5.356,1.346-8.057,1.159c-4.791-0.331-10.293-1.929-13.805-5.292
			c-0.043-0.041-0.088-0.068-0.13-0.104C165.547,208.909,165.83,208.667,166.127,208.441z M159.5,222.633
			c0.818-3.198,1.777-6.434,3.053-9.518c3.473,4.445,11.557,6.492,16.658,6.776c4.592,0.256,13.377-1.458,16.313-6.072
			c3.178,5.09,4.871,11.718,5.853,16.774c0.335,1.733,0.626,3.539,0.876,5.375c-0.486-0.291-1.105-0.425-1.828-0.296
			c-5.502,0.976-9.635,2.147-15.23,0.582c-4.75-1.329-9.299-3.303-14.178-4.169c-4.805-0.854-10.504-0.776-14.295,2.101
			C157.512,230.297,158.523,226.439,159.5,222.633z M155.418,243.221c0.103-1.471,0.277-2.938,0.49-4.403
			c3.979-0.938,7.696-2.032,11.922-1.533c4.348,0.514,8.452,2.112,12.582,3.47c7.068,2.325,15.365,4.079,21.862-0.693
			c0.155-0.114,0.29-0.239,0.411-0.368c0.537,5.656,0.545,11.491-0.363,16.773c-2.197,12.759-17.333,18.315-19.016,31.615
			c-1.029,8.146-1.393,18.411,0.643,26.438c0.967,3.816,2.713,7.688,5.318,10.704c-0.287,0.005-0.573,0.005-0.861,0.012
			c-6.097,0.141-12.191,0.401-18.289,0.563c1.35-1.569,2.555-3.304,3.586-4.649c2.649-3.459,3.704-6.591,3.514-11.031
			c-0.253-5.882-0.51-11.661-0.616-17.56c-0.091-5.046-0.833-10.039-4.242-13.971c-3.77-4.347-9.056-7.188-12.245-12.072
			C155.801,259.914,154.877,250.899,155.418,243.221z M154.99,325.247c1.154-3.542,0.289-8.07,0.468-11.794
			c0.231-4.831,0.781-9.635,1.611-14.398c0.778-4.476,1.755-8.897,2.76-13.326c0.446-1.968,1.228-4.132,1.827-6.304
			c0.752,0.649,1.506,1.296,2.252,1.95c5.633,4.927,5.344,10.161,5.236,17.209c-0.072,4.701,2.123,11.467,0.403,15.857
			c-3.11,7.931-8.38,10.383-14.646,11.018C154.93,325.387,154.967,325.32,154.99,325.247z M133.59,346.854
			c-7.639-0.2-15.205-0.028-22.822-0.709c-3.556-0.317-12.93,0.315-14.592-3.844c-2.305-5.769,16.165-7.477,19.539-7.762
			c15.451-1.302,30.799,0.307,46.248,0.254c17.517-0.059,35.154-0.541,52.66-1c1.859-0.049,3.715-0.126,5.565-0.216
			c10.259,0.845,20.878,0.377,30.943,1.093c3.638,0.259,7.315,0.429,10.882,1.257c3.769,0.876,6.515,1.519,2.801,4.967
			c-3.607,3.35-9.998,3.762-14.602,4.116c-6.963,0.535-13.941,0.917-20.908,1.392c-15.906,1.086-31.745,1.414-47.684,1.395
			C165.592,347.779,149.608,347.274,133.59,346.854z M251.971,425.367c0.254,1.756,0.525,3.509,0.807,5.26
			c-3.25-5.71-6.704-11.299-9.918-17.041c-4.354-7.774-7.443-16.012-11.236-24.038c-1.785-3.775-3.638-7.514-5.344-11.326
			c-1.274-2.846-2.23-5.86-3.415-8.753c5.265-3.563,9.769-8.489,10.307-14.701c0.47-0.028,0.94-0.05,1.41-0.08
			c3.063-0.191,6.552-0.212,10.179-0.319c0.32,4.961,0.02,9.99,0.335,14.955c0.407,6.409,1.449,12.771,2.272,19.135
			C248.959,400.757,250.193,413.093,251.971,425.367z M135.85,355.155c13.475,0.388,26.98,0.536,40.424,0.717
			c16.025,0.215,31.963,0.089,47.939-0.635c-2.227,6.309-9.717,11.002-15.878,12.612c-8.313,2.173-19.444-0.675-27.235-3.648
			c-8.395-3.204-14.909-4.821-23.725-2.518c-5.078,1.327-10.29,3.185-15.23,0.258C139.376,360.299,137.756,357.598,135.85,355.155z
			 M191.047,374.642c-6.244,6.304-16.01,7.917-24.613,5.528c-5.2-1.443-9.079-4.725-12.847-8.359
			c4.097-0.708,8.074-2.107,12.161-2.883c6.506-1.234,12.199,2.402,18.328,4.059C186.313,373.591,188.654,374.162,191.047,374.642z
			 M145.877,395.888c-2.403-4.496-3.818-9.476-4.074-14.569c-0.172-3.419,0.928-6.753,1.291-10.074
			c0.934,0.317,1.889,0.567,2.865,0.733c1.398,3.656,5.247,7.75,7.002,9.417c4.752,4.513,11.057,7.203,17.551,7.856
			c9.801,0.986,25.939-2.01,28.133-13.504c3.216,0.27,6.432,0.239,9.544-0.215c-0.628,5.093-0.287,10.309-1.941,15.232
			c-1.713,5.097-5.272,9.658-9.567,12.861c-7.841,5.847-18.238,7.533-27.787,6.383C158.992,408.816,150.704,404.916,145.877,395.888
			z M264.486,494.02c-0.497,3.082-4.503,2.691-7.474,3.025c-5.948,0.669-11.957,0.869-17.937,0.999
			c-12.182,0.265-24.366,0.771-36.545,0.956c-11.201,0.17-22.308-0.743-33.486-0.979c-3.606-0.076-8.482,0.45-11.848-1.073
			c-2.916-1.321-2.266-4.765-2.025-7.709c0.858-10.523,3.25-21.212,4.686-31.684c1.844-13.443,3.553-26.904,3.777-40.483
			c0.48,0.115,0.959,0.234,1.449,0.336c12.146,2.524,25.621,0.907,35.958-6.318c5.163-3.608,9.495-8.443,12.259-14.127
			c3.063-6.303,3.638-13.569,3.799-20.581c1.365,4.974,3.906,9.876,5.779,14.216c3.605,8.358,6.739,16.873,10.983,24.945
			c4.778,9.087,10.392,17.688,14.976,26.889c2.342,4.702,4.063,9.543,5.91,14.445c1.378,3.651,3.999,7.266,4.678,11.057
			c0.796,4.447,1.579,8.894,2.481,13.32C262.606,484.689,265.073,490.39,264.486,494.02z M299.482,472.543
			c-1.386,5.118-2.739,10.32-3.361,15.598c-0.162,1.373,0.174,3.479-1.05,4.388c-1.562,1.16-4.965-0.105-6.706-0.198
			c-3.525-0.188-6.954-1.182-10.482-1.323c-2.147-0.086-2.83,0.105-3.748-2.182c-0.752-1.87-0.795-3.98-1.212-5.933
			c-0.885-4.145-1.712-8.302-2.517-12.462c-1.607-8.323-3.113-16.665-4.773-24.977c-3.211-16.084-5.557-32.244-7.57-48.518
			c-0.932-7.521-2.296-14.945-3.531-22.419c-1.133-6.854-1.43-13.83-3.404-20.469c8.189-0.651,16.272-2.463,21.176-8.259
			c3.348-3.957,4.703-9.717,1.027-13.922c-3.316-3.792-9.042-4.766-13.77-5.342c-1.327-0.162-2.673-0.313-4.027-0.46
			c-2.154-0.427-4.341-0.728-6.545-0.948c0.525-3.432-0.039-7.235-0.356-10.543c-0.459-4.788-1.194-9.552-2.011-14.29
			c-0.16-0.932-0.324-1.863-0.49-2.793c4.092,2.361,9.142,0.804,13.274-0.94c10.415-4.397,17.532-12.75,24.653-21.12
			c3.704,8.268,10.34,15.042,18.701,18.856c6.066,2.768,16.4,5.006,23.905,2.536c-0.376,6.883-0.853,13.762-1.494,20.637
			c-3.951,42.332-10.505,84.384-18.524,126.124C304.757,453.412,302.094,462.892,299.482,472.543z M413.864,494.512
			c-0.257,6.446-6.355,5.955-11.569,6.13c-5.563,0.187-11.094,0.43-16.643,0.448c0.764-3.72,0.387-7.77,0.082-11.454
			c-0.477-5.754-0.633-11.395-0.615-17.175c0.047-13.998,0.201-27.975-0.18-41.97c-0.381-13.981-0.818-27.952-1.422-41.925
			c-0.312-7.224-0.107-14.468-0.709-21.679c-0.16-1.924,0.014-8.729-2.047-9.668c-2.654-1.21-2.141,3.147-2.316,4.5
			c-0.373,2.871-1.041,5.694-1.287,8.584c-0.548,6.433-0.703,12.904-0.981,19.353c-0.587,13.609-0.966,27.218-1.337,40.834
			c-0.363,13.271-0.649,26.539-1.078,39.809c-0.176,5.427-0.365,10.818,0.104,16.233c0.406,4.676,1.235,9.623-0.014,14.218
			c-7.95-0.406-15.889-1.022-23.842-1.36c-8.75-0.371-17.459,0.042-26.209,0.044c-8.074,0.002-18.546,1.741-18.35-8.975
			c0.229-12.512,6.957-26.003,9.459-38.256c3.148-7.403,5.508-14.912,8.02-22.701c3.285-10.188,7.865-20.043,13.02-29.418
			c10.031-18.242,22.932-34.434,30.229-54.176c3.027-8.191,1.406-14.54-3.579-21.486c-2.054-2.862-5.702-6.6-5.857-10.294
			c-0.151-3.607,3.786-6.441,6.272-8.55c5.197-4.411,11.87-8.284,13.673-15.369c2.094-8.226-4.546-17.723-8.01-24.701
			c-5.31-10.697-10.754-21.258-16.856-31.525c-3.885-6.534-7.339-13.413-11.068-20.092c0.82,0.613,1.64,1.222,2.467,1.809
			c5.949,4.225,12.199,7.878,18.438,11.65c6.984,4.223,13.93,8.522,20.683,13.108c5.452,3.702,11.319,7.475,15.394,12.763
			c4.02,5.219,4.724,11.16,5.41,17.497c0.96,8.861,1.804,17.738,2.519,26.622c1.266,15.727,2.007,31.492,2.05,47.271
			c0.092,34.379,0.194,68.767,2.24,103.097c0.468,7.843,1.033,15.681,1.721,23.508C412.338,478.813,414.166,486.882,413.864,494.512
			z"/>
	</g>
</g>
<g>
</g>
<g>
</g>
<g>
</g>
<g>
</g>
<g>
</g>
<g>
</g>
<g>
</g>
<g>
</g>
<g>
</g>
<g>
</g>
<g>
</g>
<g>
</g>
<g>
</g>
<g>
</g>
<g>
</g>
</svg>
